PathFileType	4	(X/Y/Z)	C:/Users/opensim2020/Desktop/walking_exp_matlab/subject06_walking16_straight_03.trc																																																																																																																																																							
DataRate	CameraRate	NumFrames	NumMarkers	Units	OrigDataRate	OrigDataStartFrame	OrigNumFrames																																																																																																																																																			
100	100	7	51	mm	100	2964	283																																																																																																																																																			
Frame#	Time	LFHD			RFHD			LBHD			RBHD			C7			T10			CLAV			STRN			RBAK			LSHO			LUPA			LELB			LFRM			LWRA			LWRB			LFIN			RSHO			RUPA			RELB			RFRM			RWRA			RWRB			RFIN			LASI			RASI			LPSI			RPSI			LTHI			LKNE			LTIB			LANK			LHEE			LTOE			RTHI			RKNE			RTIB			RANK			RHEE			RTOE			*39			*40			*41			*42			*43			*44			*45			*46			*47			*48			*49			*50		
		X1	Y1	Z1	X2	Y2	Z2	X3	Y3	Z3	X4	Y4	Z4	X5	Y5	Z5	X6	Y6	Z6	X7	Y7	Z7	X8	Y8	Z8	X9	Y9	Z9	X10	Y10	Z10	X11	Y11	Z11	X12	Y12	Z12	X13	Y13	Z13	X14	Y14	Z14	X15	Y15	Z15	X16	Y16	Z16	X17	Y17	Z17	X18	Y18	Z18	X19	Y19	Z19	X20	Y20	Z20	X21	Y21	Z21	X22	Y22	Z22	X23	Y23	Z23	X24	Y24	Z24	X25	Y25	Z25	X26	Y26	Z26	X27	Y27	Z27	X28	Y28	Z28	X29	Y29	Z29	X30	Y30	Z30	X31	Y31	Z31	X32	Y32	Z32	X33	Y33	Z33	X34	Y34	Z34	X35	Y35	Z35	X36	Y36	Z36	X37	Y37	Z37	X38	Y38	Z38	X39	Y39	Z39	X40	Y40	Z40	X41	Y41	Z41	X42	Y42	Z42	X43	Y43	Z43	X44	Y44	Z44	X45	Y45	Z45	X46	Y46	Z46	X47	Y47	Z47	X48	Y48	Z48	X49	Y49	Z49	X50	Y50	Z50	X51	Y51	Z51
																																																																																																																																																										
142	1.41	126.47041	1673.63794	-1044.6781	114.81172	1658.27478	-913.75653	-2.22493	1613.76135	-1060.12268	-12.84354	1602.88232	-931.68408	-2.61537	1456.30652	-1001.34454	-35.70234	1128.67566	-981.65393	108.18802	1380.16309	-998.49011	149.30084	1205.42029	-1006.01642	-73.65563	1286.38281	-917.91974	54.44572	1409.17493	-1160.46655	72.682	1208.64722	-1235.76257	87.28475	1097.86462	-1253.26404	151.07635	961.43286	-1275.58728	241.54939	870.49402	-1234.66504	184.64104	846.03149	-1268.7832	248.92656	782.9613	-1272.047	63.38935	1412.16797	-837.67963	23.22053	1214.10608	-748.8689	28.40951	1091.34619	-740.08875	41.62724	971.27875	-726.12891	95.32684	831.19336	-763.34314	44.22564	833.48749	-719.30286	78.35242	755.40729	-723.20032	134.01439	965.50909	-1102.68481	154.56874	977.79956	-883.35944	-22.38398	991.8797	-1059.87598	1.21438	1002.53442	-893.15338	64.56553	648.85944	-1161.49561	73.56293	485.56195	-1151.88013	-110.64453	318.44553	-1134.73047	-227.84746	193.7509	-1093.24683	-258.32816	204.95784	-1039.51465	-155.44363	69.93563	-1115.25342	116.47294	642.28558	-823.21893	125.06476	517.38007	-849.52319	88.30178	251.74025	-852.86884	84.09319	66.05287	-905.55511	43.80953	41.68831	-948.30225	239.91899	32.66948	-923.46204	19.62785	1705.53613	-994.46234	NaN	NaN	NaN	NaN	NaN	NaN	NaN	NaN	NaN	NaN	NaN	NaN	NaN	NaN	NaN	NaN	NaN	NaN	NaN	NaN	NaN	NaN	NaN	NaN	NaN	NaN	NaN	NaN	NaN	NaN	NaN	NaN	NaN
143	1.42	134.90788	1673.93054	-1044.11829	123.50968	1658.91626	-913.15265	6.14525	1614.12109	-1059.12207	-4.08785	1603.40271	-930.59192	5.90962	1456.82166	-1000.16534	-27.58118	1129.31079	-980.32684	116.64116	1380.58911	-997.58655	157.4196	1205.73108	-1005.08563	-65.06793	1287.08752	-916.62042	62.63294	1409.68054	-1159.49622	78.4846	1208.70459	-1234.41541	90.97688	1097.68494	-1251.58679	151.71483	959.92267	-1274.35059	240.60718	867.02289	-1234.5448	182.75087	843.72632	-1267.8407	245.82173	779.60614	-1272.29712	72.2374	1412.60022	-836.74811	33.96914	1214.28564	-747.45941	40.34255	1091.82422	-738.18817	55.77162	972.07721	-723.82184	112.65584	833.09735	-760.60248	61.54048	834.42651	-716.89905	97.2487	757.26208	-720.12256	142.14632	966.32715	-1101.20032	162.16142	978.15216	-882.1073	-14.30544	992.51843	-1058.80701	8.82104	1002.94464	-892.08167	76.27408	649.48535	-1160.65283	87.73778	486.41946	-1150.79358	-94.74226	318.01343	-1133.50635	-210.68196	192.03346	-1092.50854	-241.30467	202.02493	-1038.4375	-135.54466	70.82912	-1116.77136	120.73108	642.32794	-822.61066	128.06561	517.1286	-848.30658	88.85746	251.77686	-852.67902	84.18478	66.11682	-905.5072	43.86832	41.767	-948.43689	239.99207	32.55445	-923.26202	28.17754	1705.95581	-993.63403	NaN	NaN	NaN	NaN	NaN	NaN	NaN	NaN	NaN	NaN	NaN	NaN	NaN	NaN	NaN	NaN	NaN	NaN	NaN	NaN	NaN	NaN	NaN	NaN	NaN	NaN	NaN	NaN	NaN	NaN	NaN	NaN	NaN
144	1.43	143.28728	1674.39636	-1043.59656	132.32076	1659.4906	-912.60095	14.45528	1614.52625	-1058.14221	4.59772	1603.93042	-929.59503	14.35865	1457.28271	-999.07507	-19.52048	1129.9314	-979.13092	125.05388	1380.96387	-996.72205	165.66295	1206.08423	-1004.20673	-56.61044	1287.76685	-915.41418	70.74776	1410.2533	-1158.58752	84.55975	1208.98718	-1233.11743	94.83586	1097.55444	-1249.96033	152.2036	958.58643	-1273.15808	239.47035	863.72693	-1234.39111	180.46458	841.72644	-1266.8363	242.35124	776.40674	-1272.38721	80.87168	1413.04309	-835.88965	44.4974	1214.55823	-746.33978	52.10165	1092.31934	-736.42438	69.86295	973.0072	-721.65186	130.16118	835.30182	-757.58069	78.43275	835.77283	-714.12012	115.98494	759.33636	-716.82306	150.15848	967.02344	-1099.85596	169.73434	978.28888	-880.73279	-6.35224	993.19476	-1057.76465	16.65581	1003.20203	-891.07874	87.37856	650.10089	-1160.08264	101.82712	487.23859	-1149.3855	-78.4487	317.02325	-1132.47803	-192.76761	189.30724	-1092.23499	-223.67474	198.20432	-1038.02014	-114.96004	70.51106	-1117.95667	125.06036	642.18134	-821.91534	130.84747	516.78979	-847.0022	90.03069	251.77328	-852.01947	84.17325	66.15922	-905.41779	42.60912	42.4531	-947.85284	240.0181	32.4323	-923.14374	36.65315	1706.44031	-992.85645	NaN	NaN	NaN	NaN	NaN	NaN	NaN	NaN	NaN	NaN	NaN	NaN	NaN	NaN	NaN	NaN	NaN	NaN	NaN	NaN	NaN	NaN	NaN	NaN	NaN	NaN	NaN	NaN	NaN	NaN	NaN	NaN	NaN
145	1.44	151.61853	1674.7262	-1042.98621	140.89034	1659.95947	-911.95135	22.7889	1614.87439	-1057.16357	13.19553	1604.49304	-928.58569	22.79584	1457.63464	-998.06238	-11.49665	1130.54626	-978.02234	133.42805	1381.32813	-995.91827	173.81879	1206.37683	-1003.33545	-48.17404	1288.32861	-914.36273	78.76018	1410.8147	-1157.7207	90.04256	1209.10132	-1231.8551	98.38676	1097.66626	-1248.12402	152.49672	957.33783	-1271.86096	238.14328	860.54919	-1234.16541	178.23605	839.8548	-1265.70264	238.55673	773.32617	-1272.29797	89.32561	1413.48206	-835.11029	54.57838	1214.85828	-745.36053	63.88539	1092.82666	-734.79486	83.99591	973.99103	-719.54401	147.95036	837.55396	-754.43994	95.79343	836.90338	-712.02704	134.94055	761.65033	-713.54211	158.08528	967.66064	-1098.53284	177.22018	978.34454	-879.56519	1.56634	993.77002	-1056.80969	24.2085	1003.42578	-890.0282	99.84446	650.55664	-1158.61035	115.92033	488.07379	-1147.79736	-61.78187	315.54462	-1131.77478	-174.11005	185.71524	-1092.42603	-205.46666	193.6282	-1038.24658	-93.22355	69.5695	-1118.87708	129.56627	642.12372	-821.24084	133.5571	516.66467	-845.763	91.06269	251.85904	-851.49976	84.21651	66.12485	-905.28174	42.53143	42.57326	-947.74951	240.02504	32.32901	-923.0528	45.13616	1706.88013	-992.02985	NaN	NaN	NaN	NaN	NaN	NaN	NaN	NaN	NaN	NaN	NaN	NaN	NaN	NaN	NaN	NaN	NaN	NaN	NaN	NaN	NaN	NaN	NaN	NaN	NaN	NaN	NaN	NaN	NaN	NaN	NaN	NaN	NaN
146	1.45	160.00652	1674.98499	-1042.48315	149.60318	1660.47449	-911.36554	31.04162	1615.26978	-1056.30298	21.72904	1605.0083	-927.65887	31.10526	1457.95752	-997.15485	-3.35862	1130.92078	-976.9502	141.76849	1381.67578	-995.17981	182.01073	1206.66052	-1002.52356	-39.91719	1288.73315	-913.396	86.72209	1411.37793	-1156.94312	95.72641	1209.33228	-1230.65979	101.99297	1097.71252	-1246.46143	152.84914	956.2381	-1270.60339	236.7303	857.57141	-1233.84619	175.83087	838.1958	-1264.40417	234.61699	770.37842	-1272.02551	97.54424	1413.86865	-834.38617	64.45903	1215.14539	-744.47388	75.66925	1093.36133	-733.21899	98.15241	975.04047	-717.5578	166.19418	840.23071	-751.27081	112.91143	838.31281	-709.80688	153.94087	764.15485	-710.28119	165.97774	968.15582	-1097.38538	184.75842	978.26233	-878.44006	9.39663	994.27252	-1055.92896	31.91116	1003.6134	-889.11395	111.33788	651.10938	-1157.67273	129.98878	488.89929	-1145.97107	-44.68222	313.58221	-1131.30127	-154.60811	181.32846	-1092.95569	-186.59741	188.31021	-1038.9624	-70.49249	67.70192	-1119.36047	134.34346	642.02576	-820.58942	136.66551	516.46429	-844.62592	92.21778	251.92578	-851.20752	84.25301	66.15445	-905.12457	42.36829	42.73924	-947.45056	240.05342	32.25911	-923.00348	53.61481	1707.3241	-991.28778	NaN	NaN	NaN	NaN	NaN	NaN	NaN	NaN	NaN	NaN	NaN	NaN	NaN	NaN	NaN	NaN	NaN	NaN	NaN	NaN	NaN	NaN	NaN	NaN	NaN	NaN	NaN	NaN	NaN	NaN	NaN	NaN	NaN
147	1.46	168.30247	1675.29199	-1041.90039	158.1671	1660.84607	-910.76764	39.30941	1615.60327	-1055.4552	30.15436	1605.33081	-926.78601	39.39216	1458.18298	-996.33826	4.7112	1131.28186	-975.96558	150.05653	1381.96838	-994.51752	190.20314	1206.92749	-1001.78192	-31.69913	1289.00195	-912.4826	94.65684	1411.89294	-1156.22144	101.23201	1209.5603	-1229.51428	105.64948	1097.80945	-1244.90979	153.12759	955.24298	-1269.25952	235.19165	854.71143	-1233.41382	173.49236	836.68549	-1263.10059	230.54306	767.60297	-1271.50977	105.63643	1414.20215	-833.7356	74.08664	1215.32214	-743.67133	87.27559	1093.84485	-731.80786	112.33288	976.11145	-715.66193	183.14687	842.9425	-748.78137	130.06799	839.86206	-707.68866	172.94025	766.95636	-707.14905	173.80067	968.53271	-1096.26355	192.20288	978.05035	-877.32544	17.20843	994.7002	-1055.05872	39.57096	1003.75922	-888.19385	122.87142	651.70715	-1156.67456	144.02026	489.80774	-1144.17554	-27.16187	311.23813	-1131.12146	-134.32855	176.29118	-1093.77588	-167.14497	182.34599	-1040.08215	-46.79126	65.38793	-1119.55225	139.29193	641.84949	-819.95673	140.02417	516.13184	-843.88513	93.55801	252.02412	-850.76648	84.28407	66.18977	-904.97522	42.27534	42.92345	-947.32062	240.05412	32.14191	-922.87555	62.04593	1707.68408	-990.57428	NaN	NaN	NaN	NaN	NaN	NaN	NaN	NaN	NaN	NaN	NaN	NaN	NaN	NaN	NaN	NaN	NaN	NaN	NaN	NaN	NaN	NaN	NaN	NaN	NaN	NaN	NaN	NaN	NaN	NaN	NaN	NaN	NaN
148	1.47	176.61012	1675.36316	-1041.38013	166.55322	1661.08691	-910.22931	47.48318	1615.88269	-1054.70178	38.59827	1605.8042	-926.04437	47.63783	1458.37817	-995.60907	12.7058	1131.56958	-975.02289	158.31749	1382.21472	-993.87714	198.43689	1207.10608	-1001.12781	-23.46561	1289.08972	-911.64459	102.56548	1412.28406	-1155.60779	106.7967	1209.93115	-1228.72974	109.11426	1097.93152	-1243.42627	153.505	954.36542	-1267.94006	233.62308	851.95856	-1232.78955	171.19324	835.33954	-1261.61365	226.43909	764.90649	-1270.71033	113.62201	1414.47046	-833.16492	83.65648	1215.48035	-742.95697	98.8118	1094.29504	-730.39532	126.41346	977.26294	-713.83795	200.87965	845.91522	-745.96637	147.31094	841.49176	-705.71912	192.08475	769.8515	-704.25903	181.87552	968.79724	-1095.46289	199.79314	977.83466	-876.11621	24.9213	995.07941	-1054.22192	47.0783	1003.93176	-887.30151	134.27582	652.26508	-1155.71179	157.93814	490.76669	-1142.3855	-9.1997	308.36383	-1131.22852	-113.36909	170.7027	-1094.72119	-147.22429	175.82039	-1041.56848	-21.85889	62.98909	-1119.65369	144.24608	641.67181	-819.45526	143.55031	515.87866	-843.2113	94.72012	252.09198	-850.41272	84.31405	66.26697	-904.93634	42.18787	43.12253	-947.30408	240.10376	32.05614	-922.79211	70.4458	1707.98938	-989.92792	NaN	NaN	NaN	NaN	NaN	NaN	NaN	NaN	NaN	NaN	NaN	NaN	NaN	NaN	NaN	NaN	NaN	NaN	NaN	NaN	NaN	NaN	NaN	NaN	NaN	NaN	NaN	NaN	NaN	NaN	NaN	NaN	NaN
